<svg xmlns="http://www.w3.org/2000/svg"  viewBox="0 0 512 512" width="100px" height="100px"><path fill="#FCBF95" d="M321.3,361.1c-15.6,7.1-32.8,11.2-49.5,12.3c-19.5,1.2-38.9-1.8-56.9-8.5c0,0.5-0.1,1-0.1,1.5c0.2,0.6,0.3,1.3,0.3,2c-1.2,26.3,27.7,38.4,50.1,39.2c24.6,0.9,52.9-9,56-36.9c0.1-1.3,0.6-2.3,1.4-3C321.9,365.5,321.5,363.4,321.3,361.1z"/><path fill="#FCBF95" d="M371.8 193.8c-.4-.5-.8-1.1-1-1.7-1.2-3.3-1-6.8-.6-10.2.1-.8.2-1.6.3-2.4-.1-.1-.2-.3-.3-.5-.5-.7-.6-1.3-1.2-1.5-.6-.2-3.9-.2-5.4-.5-3.7-.7-7-2.2-10-4.5-8.2-6.4-9.8-15.1-10.1-24.3-23.5 14.7-73.6 23.2-90.7 5.9-9 11.5-26.2 17.7-40 19.6-12.9 1.8-32 .9-43.2-7.9-2.1 8.7-6.3 16.7-13.9 22.8-8.8 7.1-18.6 7.4-29.1 8.1v8c0 .7-.1 1.3-.3 1.8.4 1.2.4 2.6-.3 4-2.8 6-1.9 13.4-.7 19.7 1 5.6 2.5 11.1 4.3 16.5.4.2.8.5 1.1.7 2.6 1.8 2.6 4.3 1.3 6.3.2.5.3.9.5 1.4 2.8 7.4 5.9 14.7 9.1 22 3.5 7.8 6.5 15.8 11 23.1 19.2 31.5 53.8 55.6 90.6 61 36.9 5.4 79.8-4.9 105.8-32.9 12.9-13.9 21-31.9 21.5-51C371.2 249.4 375.8 221.6 371.8 193.8zM195.1 220.6c-5.8-3.4-17.6-7.8-21.1.5-2.8 6.5-12.6 1.6-9.9-4.9 6.2-14.5 24.6-12 35.9-5.5C206.1 214.3 201.2 224.2 195.1 220.6zM291.4 285.8c-3.3 13.7-14.3 24.8-29 25.1-14.1.2-26.9-7.5-33.5-20-3.2-6.2 5.8-12.4 9.1-6.2 4.5 8.7 13.2 15.8 23.5 15.2 9.8-.5 16.7-6.7 19-16.2C282.3 276.8 293.1 278.9 291.4 285.8zM328.8 216c-4.9-10.1-23.8-9.9-29.7-1.2-4 5.9-12.2-1.5-8.3-7.3 11-16.3 40.2-11.9 48.3 4.8C342.3 218.8 331.9 222.3 328.8 216zM404.6 234.2c-2.9-9.3-10-14.6-18-7.9-.7.6-1.5 1-2.2 1.1-.3 8.6-.8 17.3-1.5 25.9.8-.6 1.8-1 3.1-1 6.1-.1 13.3-.9 17.1-6.2C405.5 242.8 405.8 238.1 404.6 234.2z"/><path fill="#FEBF10" d="M400.8,180.1c-0.2-3.9-0.2-6.9-2.3-10.4c-1.9-3.1-4-6.2-5.8-9.4c-3.3-6.1-3.2-11.6-0.6-18c1.3-3.3,3.2-6.6,3.7-10.2c0.5-3.8,0.2-7.9,0.1-11.8c-0.3-7.3-1-14.5-4.1-21.2c-5.2-11.1-15.1-16.7-27.3-16c-3.5,0.2-6.6-3-5.8-6.5c4.3-19.3-3.5-40.4-22.9-47.9c-9.5-3.7-21.4-4-30.8,0c-9.9,4.2-19.1,11.1-30.2,11.1c-12.1,0-19.6-10.1-30.3-13.7c-9.4-3.2-19.4-2.9-29-1c-18.9,3.7-41.7,14.1-49.2,33.2c-3.3,8.5-5,16-14.2,20.1c-9.2,4.1-20.6,4-28.5,10.8c-8.4,7.2-15,19.9-17.8,30.4c-3.1,11.9-2.2,23.4,6.2,33c1.9,2.1,0.9,6.3-1.5,7.6c-14.8,8.5-18,27.6-14.4,43.1c1.5,6.4,3.1,12.6,6.3,18.5c2.8,5.2,6.7,11.6,12.6,13.7c-0.2-1-0.4-2.1-0.6-3.1c-1.5-8.4-2.2-17.5,1.2-25.6c-0.1-0.4-0.1-0.7-0.1-1.2v-13.5c0-3,1.9-5.6,5.1-5.9c9.4-0.9,19.9,0.6,27.7-5.7c9.9-8,12.1-19.7,12.2-31.8c0-7,10.5-8,11-0.8c1,16.5,27.4,16.9,40.4,15c12.6-1.9,31.2-8.1,35.1-21.2c-0.3-2.8-0.1-5.9,0.6-9.4c1.3-6.3,10-5.4,10.9,0.6c0.4,3.2,0.4,6.2-0.1,8.9c1,3.5,3.6,6.1,7.9,7.9c8.5,3.6,18.6,3.4,27.7,2.5c10.8-1.1,21.6-3.4,31.7-7.4c7.1-2.7,14.9-6.2,19.2-12.1c2.8-3.7,9.6-1.4,9.6,3.2c-0.1,10.6-2.9,28.9,12.1,30.6c4.6,0.5,8.4,0.8,11.5,4.8c2.1,2.8,3.5,5.5,3.2,9.1c-0.1,1.1-0.3,2.3-0.4,3.4c0.3,0.5,0.4,1,0.6,1.6c1.6,7.7,2.4,15.5,2.8,23.3C394.7,203,401.4,192.5,400.8,180.1z"/><path fill="#FCBF95" d="M124,263.8c-1.2-3-2.3-6.1-3.4-9.2c-8.6-2.3-21,6.4-14.9,15c5.2,7.4,16.5,11,25.2,11.2C128.5,275.1,126.2,269.4,124,263.8z"/><path fill="#127274" d="M415.5,435.6c-2.5-0.6-3.9-2.4-4.2-4.4c-0.7-0.6-1.1-1.4-1.4-2.3c-15.9-12.6-39.7-18.9-58.7-29.2c-2.3,14.4-16.9,25.7-28.4,33c-13,8.2-28.3,15.7-43.9,16.6c-18.8,1.1-38.2-1.9-55-10.7c-16.7-8.8-30.2-22.1-39.9-38.3c-0.3-0.6-0.6-1.2-0.7-1.7c-0.6,0.3-1.3,0.6-1.9,0.8c-27.4,12.2-56.7,19.7-83.7,32.8c-0.4,1.5-1.4,2.7-3,3.2c0,0.4,0,0.8,0.1,1.2c0-0.1,0.8,2.2,0.9,2.3c0.7,1.1,1.7,2.4,2.1,2.9c6,6.2,14,10.2,21.8,13.7c20.5,9.3,42.5,15.3,64.3,20.7c10.4,2.6,20.8,5.2,31.3,7.4c28,5.7,57,5.1,85.2,1.7c14.3-1.7,28.6-4,42.7-7.1c13.4-2.9,27.4-5.5,40.2-10.4c10.3-3.9,20.8-9,27.6-17.4c2.4-3,5.2-6.6,6.3-10.3C418,437.3,418.5,436.3,415.5,435.6z"/><path fill="#3AB37C" d="M329.8,382.7c-9.2,27.4-40.8,37.7-67.9,35.6c-21.4-1.7-46.5-12.3-54.9-32.4c-4,3.8-8.7,6.4-13.7,8.6c8.7,14.3,20.5,26.7,35.6,34.3c15.2,7.7,32.3,10.8,49.3,9.6c13.7-1,27.2-7.4,38.6-14.8c9.4-6.1,22.7-15.1,23.9-27.4c0.1-1,0.4-1.8,0.8-2.5C337,390.5,333,386.9,329.8,382.7z"/><path d="M423.1,426.9c-0.3-0.8-0.7-1.6-1.5-2.3c-15-14.7-36.5-20.8-55.2-29.3c-9-4.1-17.9-8.9-25-16c-6.5-6.5-9.2-14.9-9.4-23.8c13.2-7.6,24.8-17.7,33.6-30.3c5.1-7.3,8.9-15.2,11.7-23.7c3.3-9.9,3.8-20,4.4-30.3c0.2-3.4,0.4-6.8,0.7-10.2c1,1.3,2.5,2.2,4.5,2.2c9.2-0.1,19.3-2.6,24.9-10.5c4.7-6.5,5.2-14.6,3.1-22.1c-2.5-9-9.5-15.9-17.6-17.7c7-6.1,11.6-14.3,14-24.4c0.9-3.9,0.5-8.3,0.3-12.3c-0.3-5-1.4-8.3-4-12.6c-2.1-3.5-4.7-6.8-6.2-10.6c-1.4-3.5,1.6-8.2,2.9-11.4c3.6-8.7,2.9-18.1,2.3-27.3c-0.6-8.4-2.8-16-6.8-23.4c-6.1-11.2-17.2-17.4-29.3-18.5c2.1-19.2-5.4-38.7-22.2-49.5c-9.3-6-20.2-8.3-31.2-7.8c-6,0.3-11.5,1.4-17,3.8c-5.7,2.4-11,5.7-16.7,8.1c-5.3,2.2-10.1,2.4-15.4,0c-5.4-2.5-10-6.4-15.2-9.2c-8.8-4.7-19.6-5.5-29.3-4.8c-20.9,1.5-42.9,10.7-57.5,25.9c-4.1,4.2-7.2,9.2-9.5,14.6c-1.7,4.1-2.3,9.3-5.3,12.7c-3.6,4.2-11.9,4.9-17,6.3c-6,1.6-11.8,3.8-16.7,7.7c-11.1,8.8-18.6,24.2-22.4,37.5c-3.6,12.5-2.5,26.1,4.5,36.9c-14.3,11.6-18.1,32.5-14.4,50c3,14.4,9.2,33,23.3,40.1c-1.3,0.5-2.7,1-4,1.7c-7.8,4.1-12.7,14.6-10.8,23.1c3.4,15.6,24.3,22.2,38.2,22.4c1.4,0,2.5-0.4,3.3-1.1c5.1,10.8,11,21.2,18.5,30.4c13.7,16.9,31,30.2,50.3,39.3c-0.1,7.2-0.7,14.7-6.7,19.4c-7.9,6.1-19,9.2-28.1,13c-24.9,10.3-50.8,17.7-75.2,29.2c-1.8-0.7-4-0.4-5.6,1.7c-0.5,0.6-0.9,1.2-1.3,1.7c-0.2,0.1-0.5,0.2-0.7,0.3c-2.5,1.3-3,3.6-2.2,5.7c-10.4,35.6,105.7,57.7,125.7,62.4c47.1,11.2,98.4,3.7,144.9-6.9c21.3-4.9,46.2-9.8,61.9-26.3C424.6,452.2,434.9,433.9,423.1,426.9z M404.6,234.2c1.2,3.9,0.9,8.6-1.3,11.8c-3.8,5.4-11.1,6.2-17.1,6.2c-1.3,0-2.4,0.4-3.1,1c0.6-8.6,1.2-17.2,1.5-25.9c0.7-0.2,1.5-0.5,2.2-1.1C394.5,219.6,401.7,224.9,404.6,234.2z M102.5,221.8c-3.2-5.8-4.8-12.1-6.3-18.5c-3.7-15.5-0.4-34.6,14.4-43.1c2.4-1.4,3.4-5.5,1.5-7.6c-8.4-9.6-9.3-21-6.2-33c2.7-10.5,9.4-23.3,17.8-30.4c7.9-6.8,19.3-6.7,28.5-10.8c9.1-4.1,10.8-11.6,14.2-20.1c7.5-19.1,30.3-29.5,49.2-33.2c9.6-1.9,19.6-2.1,29,1c10.7,3.6,18.2,13.7,30.3,13.7c11.2,0,20.3-6.9,30.2-11.1c9.4-4,21.3-3.7,30.8,0c19.3,7.5,27.2,28.6,22.9,47.9c-0.8,3.5,2.3,6.7,5.8,6.5c12.2-0.7,22.1,4.9,27.3,16c3.2,6.7,3.9,13.9,4.1,21.2c0.2,3.8,0.5,7.9-0.1,11.8c-0.5,3.5-2.4,6.9-3.7,10.2c-2.6,6.3-2.7,11.9,0.6,18c1.8,3.2,3.8,6.3,5.8,9.4c2.1,3.4,2.1,6.4,2.3,10.4c0.6,12.5-6.2,22.9-16.6,28.6c-0.4-7.8-1.2-15.6-2.8-23.3c-0.1-0.6-0.3-1.1-0.6-1.6c0.1-1.2,0.3-2.3,0.4-3.4c0.3-3.5-1.1-6.3-3.2-9.1c-3.1-4-6.9-4.3-11.5-4.8c-15.1-1.7-12.2-20-12.1-30.6c0-4.6-6.9-6.9-9.6-3.2c-4.4,5.9-12.2,9.4-19.2,12.1c-10.1,3.9-20.9,6.3-31.7,7.4c-9,0.9-19.2,1.1-27.7-2.5c-4.3-1.8-6.9-4.3-7.9-7.9c0.5-2.8,0.6-5.8,0.1-8.9c-0.8-6.1-9.6-6.9-10.9-0.6c-0.7,3.5-0.9,6.6-0.6,9.4c-3.9,13.1-22.5,19.3-35.1,21.2c-13,1.9-39.4,1.5-40.4-15c-0.4-7.2-10.9-6.2-11,0.8c-0.1,12.1-2.3,23.8-12.2,31.8c-7.8,6.3-18.4,4.9-27.7,5.7c-3.2,0.3-5.1,2.9-5.1,5.9v13.5c0,0.4,0,0.8,0.1,1.2c-3.4,8.1-2.7,17.2-1.2,25.6c0.2,1,0.4,2.1,0.6,3.1C109.2,233.4,105.3,227,102.5,221.8z M105.6,269.5c-6.1-8.6,6.4-17.3,14.9-15c1.1,3.1,2.2,6.2,3.4,9.2c2.2,5.6,4.5,11.3,6.9,17C122.1,280.5,110.8,277,105.6,269.5z M152.6,300.3c-4.5-7.3-7.5-15.3-11-23.1c-3.3-7.2-6.4-14.5-9.1-22c-0.2-0.5-0.3-0.9-0.5-1.4c1.3-2,1.2-4.6-1.3-6.3c-0.4-0.3-0.7-0.5-1.1-0.7c-1.8-5.4-3.3-10.9-4.3-16.5c-1.1-6.3-2.1-13.7,0.7-19.7c0.7-1.5,0.7-2.8,0.3-4c0.2-0.6,0.3-1.2,0.3-1.8v-8c10.4-0.7,20.3-1,29.1-8.1c7.6-6.2,11.8-14.1,13.9-22.8c11.2,8.8,30.4,9.6,43.2,7.9c13.7-1.9,31-8.2,40-19.6c17.1,17.3,67.3,8.8,90.7-5.9c0.2,9.2,1.9,17.9,10.1,24.3c3,2.4,6.3,3.8,10,4.5c1.5,0.3,4.8,0.2,5.4,0.5c0.7,0.2,0.8,0.8,1.2,1.5c0.1,0.2,0.2,0.3,0.3,0.5c-0.1,0.8-0.2,1.6-0.3,2.4c-0.4,3.4-0.6,6.9,0.6,10.2c0.3,0.7,0.6,1.3,1,1.7c4,27.8-0.6,55.7-1.3,83.6c-0.5,19.1-8.6,37.1-21.5,51c-25.9,28.1-68.9,38.3-105.8,32.9C206.4,356,171.9,331.9,152.6,300.3z M214.7,366.3c0-0.5,0.1-1,0.1-1.5c18,6.7,37.4,9.8,56.9,8.5c16.8-1.1,33.9-5.1,49.5-12.3c0.2,2.3,0.6,4.5,1.2,6.6c-0.7,0.7-1.2,1.7-1.4,3c-3.1,27.8-31.4,37.8-56,36.9c-22.4-0.8-51.3-12.9-50.1-39.2C215,367.5,214.9,366.8,214.7,366.3z M206.9,385.8c8.4,20.2,33.5,30.8,54.9,32.4c27.2,2.1,58.7-8.2,67.9-35.6c3.2,4.2,7.2,7.8,11.7,11c-0.4,0.6-0.8,1.5-0.8,2.5c-1.2,12.3-14.5,21.3-23.9,27.4c-11.4,7.3-24.9,13.8-38.6,14.8c-17,1.2-34.1-1.9-49.3-9.6c-15.1-7.6-26.9-20-35.6-34.3C198.2,392.2,202.9,389.6,206.9,385.8z M417.2,440.1c-1.1,3.8-3.9,7.3-6.3,10.3c-6.8,8.5-17.3,13.5-27.6,17.4c-12.8,4.9-26.8,7.5-40.2,10.4c-14.1,3-28.4,5.4-42.7,7.1c-28.3,3.4-57.2,4-85.2-1.7c-10.5-2.1-20.9-4.8-31.3-7.4c-21.8-5.4-43.8-11.5-64.3-20.7c-7.8-3.5-15.8-7.5-21.8-13.7c-0.4-0.5-1.4-1.7-2.1-2.9c-0.1-0.2-0.9-2.4-0.9-2.3c-0.1-0.4-0.1-0.8-0.1-1.2c1.6-0.5,2.6-1.7,3-3.2c27-13.1,56.3-20.6,83.7-32.8c0.6-0.3,1.3-0.6,1.9-0.8c0.1,0.6,0.4,1.1,0.7,1.7c9.7,16.2,23.2,29.5,39.9,38.3c16.8,8.8,36.2,11.8,55,10.7c15.6-0.9,30.9-8.4,43.9-16.6c11.5-7.2,26.1-18.5,28.4-33c19,10.3,42.8,16.6,58.7,29.2c0.2,0.9,0.7,1.7,1.4,2.3c0.3,2,1.6,3.8,4.2,4.4C418.5,436.3,418,437.3,417.2,440.1z"/><path d="M200 210.8c-11.2-6.5-29.7-9-35.9 5.5-2.8 6.5 7.1 11.4 9.9 4.9 3.5-8.3 15.3-3.9 21.1-.5C201.2 224.2 206.1 214.3 200 210.8zM339.2 212.4c-8.1-16.7-37.3-21.2-48.3-4.8-3.9 5.8 4.3 13.1 8.3 7.3 5.9-8.7 24.8-8.9 29.7 1.2C331.9 222.3 342.3 218.8 339.2 212.4zM280.6 283.7c-2.3 9.5-9.2 15.7-19 16.2-10.3.5-19-6.5-23.5-15.2-3.3-6.3-12.4-.1-9.1 6.2 6.5 12.5 19.3 20.3 33.5 20 14.7-.2 25.7-11.3 29-25.1C293.1 278.9 282.3 276.8 280.6 283.7z"/></svg>