<svg xmlns="http://www.w3.org/2000/svg"  viewBox="0 0 48 48" width="100px" height="100px"><path fill="#795548" d="M29,7.001c-1.819,0-5,0.716-5,5.999h3c0,0,0-4.999,2-4.999V7.001z"/><path fill="#ffb74d" d="M25,23.001V30l2.729,1.816l0.772,3.91L30,43h6l1.592-7.273l0.681-3.91L41,30v-6.999	c0-3.637-2.544-8-8-8C27.547,15.001,25,19.364,25,23.001z"/><path fill="#ffb74d" d="M32.998,14C30.241,14,28,11.754,28,8.998S30.241,4,32.998,4C35.756,4,38,6.242,38,8.998	S35.756,14,32.998,14"/><rect width="2" height="10" x="32" y="33" fill="#ffa726"/><path fill="#f50057" d="M41,23c0-3.637-2.499-8-7.955-8C27.592,15,25,19.363,25,23h3.072L26,34.001c0,0,1.547,2,7,2	c5.456,0,7-2,7-2L38.072,23H41z"/><path fill="#795548" d="M37.102,7.001c1.819,0,5,0.716,5,5.999h-3c0,0,0-4.999-2-4.999V7.001z"/><path fill="#795548" d="M37.899,8c-0.464-2.28-2.485-4-4.901-4c-2.415,0-4.434,1.72-4.897,4H37.899z"/><path fill="#ffb74d" d="M7,23.001V30l2.729,1.816l0.772,3.91L12,43h6l1.592-7.273l0.681-3.91L23,30v-6.999	c0-3.637-2.544-8-8-8C9.547,15.001,7,19.364,7,23.001z"/><path fill="#ffb74d" d="M14.998,14C12.241,14,10,11.754,10,8.998S12.241,4,14.998,4C17.756,4,20,6.242,20,8.998	S17.756,14,14.998,14"/><rect width="2" height="10" x="14" y="33" fill="#ffa726"/><path fill="#689f38" d="M23,23c0-3.637-2.499-8-7.955-8C9.592,15,7,19.363,7,23h3.072L8,34.001c0,0,1.547,2,7,2	c5.456,0,7-2,7-2L20.072,23H23z"/><path fill="#795548" d="M11,7.001c-1.819,0-5,0.716-5,5.999h3c0,0,0-4.999,2-4.999V7.001z"/><path fill="#795548" d="M19.102,7.001c1.819,0,5,0.716,5,5.999h-3c0,0,0-4.999-2-4.999V7.001z"/><path fill="#795548" d="M19.899,8c-0.464-2.28-2.485-4-4.901-4c-2.415,0-4.434,1.72-4.897,4H19.899z"/></svg>