<svg xmlns="http://www.w3.org/2000/svg" xmlns:xlink="http://www.w3.org/1999/xlink" viewBox="0 0 100 100" width="100px" height="100px"><path fill="#fff" d="M20.2 55.7A.9.9 0 1 0 20.2 57.5.9.9 0 1 0 20.2 55.7zM79.2 31A.7.7 0 1 0 79.2 32.4.7.7 0 1 0 79.2 31z"/><path fill="#f1bc19" d="M76.6 11.799999999999999A.9.9 0 1 0 76.6 13.6.9.9 0 1 0 76.6 11.799999999999999zM20.7 63.4A.9.9 0 1 0 20.7 65.2.9.9 0 1 0 20.7 63.4z"/><path fill="#c0e5e4" d="M49.5 12.399999999999999A37.5 37.5 0 1 0 49.5 87.4A37.5 37.5 0 1 0 49.5 12.399999999999999Z"/><path fill="#f1bc19" d="M82 10.9A4 4 0 1 0 82 18.9A4 4 0 1 0 82 10.9Z"/><path fill="#276fa0" d="M86 22A1.9 1.9 0 1 0 86 25.799999999999997A1.9 1.9 0 1 0 86 22Z"/><path fill="#fbcd59" d="M77.1 74.39999999999999A1.9 1.9 0 1 0 77.1 78.2 1.9 1.9 0 1 0 77.1 74.39999999999999zM13.9 59.4A4 4 0 1 0 13.9 67.4 4 4 0 1 0 13.9 59.4z"/><path fill="#276fa0" d="M24.1 85.6A1.9 1.9 0 1 0 24.1 89.4A1.9 1.9 0 1 0 24.1 85.6Z"/><path fill="#fff" d="M75.7 28.4A1.8 1.8 0 1 0 75.7 32 1.8 1.8 0 1 0 75.7 28.4zM17.6 48.8A2.5 2.5 0 1 0 17.6 53.8 2.5 2.5 0 1 0 17.6 48.8z"/><path fill="#ce9065" d="M68.7,71.1c-0.4-2.2-1.3-3.4-3.3-4L65,66.9l-0.6-0.2c-1.3-0.5-8.7-3.3-8.7-3.3 c-0.6-0.1-1-0.5-1.2-1.1c-0.2-0.9-0.3-1.9-0.2-2.9c-1.6,0.6-3.3,1-5,1.4c-1.9,0.2-6-2.3-6-2.3s-0.1,3-0.2,3.7 c-0.2,0.6-0.7,1-1.3,1.1L34.6,66c-0.8,0.2-1.5,0.5-2.2,0.9c-1.5,1-2.6,2.4-3.2,4.2c0,0-0.5,3.3-0.5,3.4c0,0.5-0.1,1-0.1,1.5 c7.8,5.3,14,6.7,24.7,6.3c4.9-0.2,12.1-2.6,15.9-4.5C69,73.5,68.7,71.1,68.7,71.1z"/><path fill="#195484" d="M29.8,69.5c0.4-1,3.2-2.9,4.2-3.2l1.4-0.5l0,0l5.7-2.2c1.5,3.8,5,19.6,6.7,23.3 c-3.1,0.1-6.3-0.3-9.3-1.1c-3.5-1.4-6.9-3.1-10-5.2C28.8,79.8,28.5,72.6,29.8,69.5z"/><path fill="#fdfcef" d="M55.9,64.8l-0.9-0.3c-0.2-0.1-0.4-0.2-0.6-0.3c-1.8,0.7-3.7,1-5.6,1c0.7-0.1,1.4,0.1,2,0.4 c-2.9,0.3-6.4,0.9-8.3-1.3c-0.1,0.1-0.2,0.1-0.4,0.2l-0.9,0.3l-0.3,0.1c1.5,4.1,3,8,4.5,12h7.9c1.8-3.7,3.1-7.6,4.6-11.4L55.9,64.8 z"/><path fill="#195484" d="M67.8,68.8c-0.4-1-1.2-1.1-2.2-1.4l-1.4-0.5l0,0l-5.7-2.2c-1.5,3.8-7.2,18.7-8.9,22.4 c3.7,0.2,7.5-0.3,11.1-1.3c6.2-1.8,8.7-3.3,8.7-3.4C69,81.5,69.1,71.9,67.8,68.8z"/><path fill="#e5304f" d="M46.8,69.4l-1.8-4h7.2l-1.8,4c-0.5,1-1.7,1.4-2.7,0.9C47.4,70.2,47,69.8,46.8,69.4z"/><path fill="#ee3e54" d="M50.3,70.9l1.6,8.3h-7.2l2-8.3c0.5-1,1.8-1.4,2.8-0.8C49.9,70.3,50.2,70.6,50.3,70.9z"/><path fill="#e1e0d8" d="M43.3,62.6l-1.8,1.3l3.8,5.9l3.6-4.5C49,65.3,43.6,63.9,43.3,62.6z"/><path fill="#e1e0d8" d="M54,62.6l1.8,1.3L52,69.8l-3.6-4.5C48.3,65.3,53.7,63.9,54,62.6z"/><path fill="#1c658e" d="M55.7,63.6l6.3,2.4c0,0-9.2,16.3-11,19.4h-5.7L55.7,63.6z"/><path fill="#276fa0" d="M42,63.3l-6.2,2.5c0,0,8.3,18.1,10.2,21.3h5.7L42,63.3z"/><g opacity=".49"><path fill="#0b2e51" d="M35.6 84.6c-.2 0-.4-.2-.4-.3v-3.9c0-.2.2-.3.4-.3s.4.2.4.3v3.9C36 84.5 35.8 84.6 35.6 84.6zM61.5 85.3c-.2 0-.3-.2-.3-.3v-4.6c0-.2.2-.3.3-.3s.3.2.3.3V85C61.9 85.1 61.7 85.3 61.5 85.3z"/></g><path fill="#ce9065" d="M61,42.5h-0.4c-1,0-1.2,0.3-1.2-0.3c0.1-1.1-0.1-5.4-0.1-5.6c0-4.5-4.7-8.1-10.5-8.3h-0.2 c-5.8,0.2-10.5,3.8-10.5,8.3c0,0.2-0.1,4.5-0.1,5.6c0,0.6-0.2,0.2-1.2,0.3h-0.4c-1,0-1.8,0.7-2.1,1.6c0.1,0.1,0.6,3.7,1.4,5.2 c0.4,0.8,1.1,0.9,1.8,1.4c0.3,0.2,0.5,0.6,0.6,1c0.5,1.6,1.4,3,2.7,4.1c0.6,0.6,4.5,4.7,7.9,4.5s7.3-4,7.9-4.5 c1.3-1.1,2.2-2.5,2.7-4.1c0.1-0.4,0.3-0.8,0.6-1c0.7-0.5,1.4-0.6,1.8-1.4c0.8-1.4,1.3-5.1,1.4-5.2C62.8,43.2,62,42.5,61,42.5z"/><path fill="#ce9065" d="M48.8,63.3c2,0,7.7-2.7,9.8-5.5c1.4-1.9,0.8-4.6,0.8-8.2c0-8.7,3.3-19.4-10.5-19.4 S38.2,41,38.2,49.7c0,3.6-0.6,6.2,0.8,8.2C41.2,60.6,46.7,63.4,48.8,63.3z"/><defs><path id="wB6T2NVKJpt5w0eIXyl3ya" d="M48.8,63.3c2,0,7.7-2.7,9.8-5.5c1.4-1.9,0.8-4.6,0.8-8.2c0-8.7,3.3-19.4-10.5-19.4S38.2,41,38.2,49.7 c0,3.6-0.6,6.2,0.8,8.2C41.2,60.6,46.7,63.4,48.8,63.3z"/></defs><clipPath id="wB6T2NVKJpt5w0eIXyl3yb"><use overflow="visible" xlink:href="#wB6T2NVKJpt5w0eIXyl3ya"/></clipPath><g clip-path="url(#wB6T2NVKJpt5w0eIXyl3yb)"><path fill="#512c2b" d="M59.3,45.8c0,0-0.4,5.5-1.9,6.5c-1.1,0.7-2.2,1.2-3.5,1.5H43.6c-1.2-0.3-2.4-0.8-3.5-1.5 c-1.5-1-1.9-6.5-1.9-6.5c-0.4,3.1-0.5,6.2-0.2,9.2c0.1,1.1,0.5,2.2,1.2,3.1c0,0,5.9,6,6.3,6.3c1.1,0.2,2.1,0.2,3.2,0.1 c1.1,0.1,2.1,0.1,3.2-0.1c0.5-0.3,6.9-6.1,6.9-6.1c0.6-1.1,0.9-2.3,1.1-3.5C60,51.8,59.8,48.7,59.3,45.8L59.3,45.8z"/></g><path fill="#603535" d="M57.2,52.3c-2.1,1.1-2.3-1.1-4.6-1.7c-1.5-0.3-3,0.2-3.8,1.5c-0.9-1.1-2.4-1.6-3.8-1.5 c-2.3,0.6-2.5,2.8-4.6,1.7c-0.2,0,5.7,5.9,8.4,1.8C51.6,58.2,57.5,52.3,57.2,52.3L57.2,52.3z"/><path fill="#512c2b" d="M48.8,50.6c0.7,0,1.3-0.3,1.8-0.8c0,0,0-0.1,0-0.2c0,0,0,0,0,0l0,0c0,0-0.1,0-0.2,0c0,0,0,0,0,0 c-0.9,0.8-2.3,0.8-3.2,0c0,0-0.1,0-0.1,0c0,0-0.1,0-0.1,0c0,0,0,0.1,0,0.2c0,0,0,0,0,0C47.5,50.3,48.1,50.6,48.8,50.6z"/><path fill="#603535" d="M46.6 41.3l.4-.8c-1.9-.4-3.8-.4-5.7.2l.5.8C43.4 41 45.1 41 46.6 41.3zM55.8 41.3l.4-.8c-1.9-.4-3.8-.4-5.7.2l.5.8C52.6 41 54.2 41 55.8 41.3z"/><path fill="#512c2b" d="M44 42.5c-.4 0-.8.3-1 .7h.2c.4 0 .7.3.7.7 0 .4-.3.7-.7.7-.1 0-.2 0-.3-.1.1.6.6 1 1.2 1.1.9-.2 1.4-1.1 1.2-2C45 43.1 44.6 42.7 44 42.5zM53.6 42.5c-.4 0-.7.2-.9.5.1 0 .2 0 .2 0 .4 0 .7.4.6.8 0 .3-.3.6-.6.6-.2 0-.4-.1-.5-.3.2.7.9 1.1 1.6.9.7-.2 1.1-.9.9-1.6C54.6 43 54.1 42.6 53.6 42.5L53.6 42.5z"/><path fill="#895d3d" d="M61 47.4l-.6-.1.2-1.8-1 .4-.2-.5 1.5-.7c.1 0 .2 0 .3 0 .1.1.1.2.1.3L61 47.4zM36.8 47.1l-.3-2.3c0-.1 0-.2.1-.3.1-.1.2-.1.3 0l1.5.6-.2.6-1-.4.2 1.8L36.8 47.1z"/><path fill="#472b29" d="M49.9,87.7c-8.9,0-14.6-1.8-21.5-6.4c-0.2-0.1-0.2-0.3-0.2-0.5c0-0.3,0.4-5.8,0.6-9.4 c0,0,0-0.1,0-0.1c0.6-1.8,1.8-3.4,3.4-4.4c0.7-0.4,1.5-0.8,2.4-1l7.1-2.6c0.5-0.1,0.8-0.4,1-0.8c0-0.2,0-0.4,0.1-0.7 c-1.5-0.9-2.8-1.9-3.9-3.2c-1.2-1.6-1.2-3.6-1-6l0-0.5c0-0.2-0.2-0.4-0.4-0.6c-0.2-0.1-0.4-0.3-0.6-0.4c-0.5-0.3-1-0.5-1.4-1.2 c-0.8-1.7-1.3-3.5-1.4-5.4c0-0.1,0-0.1,0-0.2c0.3-1.1,1.4-1.9,2.6-1.9H37c0.2,0,0.3,0,0.5,0c0-1.4,0-2.9,0.2-4.3l0-1.1 c0-4.7,4.8-8.6,11-8.8l0.2,0c6.2,0.2,11,4.1,11,8.8v0.5c0.3,1.5,0.4,3.2,0.3,4.8c0.2,0,0.3,0,0.5,0H61c1.2,0.1,2.2,0.8,2.5,1.9 c0,0.1,0,0.1,0,0.2c-0.1,1.9-0.6,3.6-1.4,5.3c-0.4,0.7-0.9,1-1.4,1.3c-0.2,0.1-0.4,0.2-0.6,0.4c-0.1,0.1-0.2,0.2-0.3,0.3l0,0.7 c0.1,2.4,0.2,4.4-1,6c-1.2,1.4-2.6,2.6-4.2,3.5c0,0.2,0.1,0.4,0.1,0.6c0.2,0.4,0.5,0.7,0.9,0.8c0.3,0.1,7.5,2.8,8.7,3.3l0.9,0.4 c2.1,0.6,3.2,1.9,3.6,4.4c0,0,0,0,0,0.1c0,0.1,0.5,9.9,0.7,11.2c0,0.2-0.1,0.4-0.3,0.5c-4,2-11.4,4.4-16.1,4.6 C52.2,87.6,51.1,87.7,49.9,87.7z M29.2,80.6c7.4,5,13.6,6.5,24.2,6c4.5-0.2,11.4-2.4,15.4-4.3c-0.2-2.1-0.6-10.2-0.6-10.9 c-0.4-2.1-1.2-3.1-3-3.6l-0.9-0.4c-1.2-0.5-8.6-3.2-8.7-3.3c-0.7-0.2-1.2-0.7-1.5-1.4c-0.1-0.4-0.2-0.8-0.3-1.2 c0-0.2,0.1-0.4,0.3-0.5c1.6-0.8,3-2,4.1-3.4c0.9-1.3,0.9-3.1,0.7-5.3l0-0.8c0-0.1,0-0.1,0-0.2c0.1-0.4,0.3-0.7,0.7-1 c0.2-0.2,0.5-0.3,0.7-0.4c0.4-0.2,0.7-0.4,1-0.8c0.7-1.5,1.1-3.2,1.2-4.9c-0.2-0.6-0.8-1.1-1.5-1.1l-0.3,0c-0.3,0-0.6,0-0.9,0.1 c-0.2,0-0.3,0-0.4-0.1c-0.1-0.1-0.2-0.3-0.2-0.4c0.1-1.8,0-3.5-0.3-5.2l0-0.6c0-4.2-4.4-7.6-10-7.8l-0.2,0c-5.6,0.2-10,3.6-10,7.8 v1.1c-0.2,1.6-0.3,3.2-0.2,4.7c0,0.1-0.1,0.3-0.2,0.4c-0.1,0.1-0.3,0.1-0.4,0.1c-0.3,0-0.6-0.1-0.9-0.1h-0.3 c-0.7,0-1.3,0.5-1.6,1.1c0.2,1.7,0.6,3.4,1.3,4.9c0.2,0.4,0.5,0.6,0.9,0.8c0.2,0.1,0.5,0.3,0.7,0.4c0.4,0.3,0.7,0.8,0.7,1.3l0,0.6 c-0.1,2.3-0.2,4.1,0.8,5.4c1.1,1.3,2.4,2.3,3.8,3.1c0.2,0.1,0.3,0.3,0.3,0.5c0,0.4-0.1,0.8-0.1,1.2c-0.3,0.8-0.9,1.4-1.7,1.6 l-7.1,2.6c-0.8,0.2-1.5,0.5-2.1,0.9c-1.4,0.9-2.4,2.2-2.9,3.8C29.7,72.5,29.3,79,29.2,80.6z"/><path fill="#603535" d="M58.8,32.5c1.3,0.2,2.2,1.4,2.2,2.7c-0.1,2.2-1.6,11.7-1.6,11.7L56.3,37L58.8,32.5L58.8,32.5z"/><path fill="#512c2b" d="M47.2,26.3L46,24.7c0,0,13.1-1.4,13,5.8c0.2,5.4-3.4,10.1-8.5,11.5l0.7-2.6l-5.1,2.7l0.6-1.5 l-4.3,1.6l1.5-3.5L40.2,40c-0.9,2.2-1.5,4.5-2,6.8c0,0-3-10.1-1.1-10.9l-0.7-0.4l0.9-1.8L36,33.2l1.2-1.7l-0.5-0.7l2.6-1.5 l-1.4-0.7C37.9,28.6,42.2,25,47.2,26.3L47.2,26.3z"/></svg>