<svg xmlns="http://www.w3.org/2000/svg"  viewBox="0 0 100 100" width="100px" height="100px"><path fill="#78a2d2" d="M31.064,74.632c0,0,20.277,9.048,37.606-0.144l-3.734-15.452c0,0-0.91-9.048,2.25-10.149 c0,0,3.16,0.048,4.021-2.106c0,0,2.777,0.862,4.644-1.101c0,0,5.593-1.369,3.371-4.155C77,38.739,70.968,28.638,70.968,28.638 s-4.92-6.676-13.968-7.67l-15.128,0.011c0,0-10.713,2.394-12.149,6.176l-6.75,12.207c0,0-5.457,5.793,0.574,6.511 c0,0,2.489,2.633,5.697,1.197c0,0,0.622,2.25,4.739,2.394c0,0,2.681,6.511,0.574,11.011L31.064,74.632z"/><rect width="29.803" height="3.979" x="35.133" y="55.967" fill="#c7dff1"/><path fill="#c7dff1" d="M40.388,23.467c0,0-0.67-1.963,2.441-1.915c0,0,1.436,6.702,6.702,6.271 c0,0,5.697,0.096,7.324-6.606l2.968,1.101c0,0-0.71,2.239-1.839,2.149c0,0,0.93,3.739-3.044,3.835c0,0-3.638,7.277-10.436,0.431 c0,0-4.064-0.947-3.16-4.356L40.388,23.467z"/><path fill="#c7dff1" d="M21.681,45.297c0,0-1.532-2.394,0.702-4.053l1.883-2.649c0,0,7.309,2.553,9,10.085 c0,0-0.894,1.691-4.723-1.117c0,0-2.84,0.989-4.995-1.691L21.681,45.297z"/><path fill="#c7dff1" d="M78.403,45.297c0,0,1.532-2.394-0.702-4.053l-1.498-2.043c0,0-8.011,1.734-9.702,9.266 c0,0,1.211,1.904,5.041-0.904c0,0,2.84,0.989,4.995-1.691L78.403,45.297z"/><path fill="#6475a5" d="M43.117,21.106c0,0,0.83,10.468,11.074,5.074c0,0,2.809-3.734,2.074-5.17L43.117,21.106z"/><path fill="#1f212b" d="M80.117,41.077c-0.038-0.075-0.084-0.146-0.14-0.209l-2.163-2.488l-5.22-8.79 c-1.183-3.446-3.82-6.133-7.327-7.404l-8.004-2.183c-0.086-0.023-0.174-0.035-0.263-0.035H42.25c-0.093,0-0.185,0.013-0.274,0.038 l-7.534,2.154c-3.304,1.29-5.848,3.948-6.993,7.301l-4.293,7.967l-2.955,3.94c-0.036,0.048-0.068,0.099-0.095,0.152 c-0.11,0.22-1.043,2.19-0.05,3.799c0.618,0.999,1.779,1.549,3.456,1.636c0.554,0.637,1.747,1.774,3.284,1.901 c0.53,0.044,1.258-0.026,2.033-0.488c0.825,0.916,2.022,1.807,3.324,1.807c0.162,0,0.326-0.028,0.491-0.057 c2.219,2.649,2.25,7.145,0.03,12.766c-0.761,1.926-2.463,10.884-2.655,11.898c-0.097,0.514,0.218,1.016,0.723,1.151l8.276,2.218 c3.55,1.253,7.279,1.877,11,1.877c3.703,0,7.397-0.619,10.894-1.854l8.35-2.24c0.504-0.136,0.82-0.637,0.724-1.15 c-0.19-1.011-1.875-9.932-2.63-11.845c-1.624-4.113-2.901-9.727,0.232-13.11c0.042-0.045,0.078-0.093,0.117-0.139 c1.443,0.191,2.791-0.762,3.693-1.764c0.776,0.462,1.505,0.531,2.033,0.488c1.537-0.127,2.73-1.265,3.284-1.901 c1.676-0.087,2.838-0.637,3.456-1.636C81.16,43.268,80.227,41.297,80.117,41.077z M58.999,22.875 c0.038,0.28-0.623,0.836-1.238,1.146c-0.209,0.105-0.318,0.342-0.261,0.568c0.26,1.041,0.17,1.854-0.267,2.418 c-0.731,0.941-2.234,0.961-2.25,0.961c-0.275,0.002-0.499,0.225-0.499,0.5c0,3.283-9.485,3.283-9.485,0 c0-0.133-0.053-0.26-0.146-0.354s-0.221-0.146-0.354-0.146c-0.015,0-1.518-0.026-2.245-0.957c-0.44-0.563-0.531-1.378-0.27-2.422 c0.057-0.227-0.052-0.463-0.261-0.568c-0.615-0.31-1.275-0.865-1.238-1.146c0.003-0.02,0.098-0.499,2.04-0.901 c0.271,3.623,3.403,6.493,7.223,6.493c3.813,0,6.94-2.859,7.222-6.471l1.292,0.352C58.939,22.625,58.997,22.861,58.999,22.875z M43.526,21.968h12.447c-0.266,3.075-2.953,5.5-6.224,5.5S43.792,25.043,43.526,21.968z M29.832,46.413 c-0.166-0.249-0.436-0.411-0.733-0.44c-0.3-0.026-0.594,0.076-0.806,0.288c-0.442,0.441-0.877,0.642-1.329,0.603 c-0.94-0.074-1.873-1.093-2.15-1.477c-0.188-0.263-0.491-0.419-0.814-0.419c-1.164,0-1.96-0.247-2.241-0.696 c-0.329-0.526-0.053-1.427,0.104-1.787l2.473-3.298c1.864,0.572,6.128,2.545,8.452,8.809c-0.013,0.003-0.025,0.001-0.038,0.004 c-0.035,0.009-0.061,0.033-0.094,0.045c-0.034,0.013-0.07,0.011-0.103,0.028C31.408,48.643,29.846,46.434,29.832,46.413z M67.844,74.243l-7.527,2.021c-6.653,2.349-13.982,2.35-20.708-0.022l-7.452-1.999c0.611-3.169,1.848-9.288,2.376-10.625 c0.52-1.316,0.896-2.523,1.178-3.65h13.135l-0.354,1.298c-0.073,0.267,0.084,0.542,0.351,0.614 c0.044,0.012,0.088,0.018,0.132,0.018c0.22,0,0.421-0.146,0.482-0.368l0.426-1.562h0.236l0.426,1.562 c0.061,0.222,0.262,0.368,0.482,0.368c0.044,0,0.088-0.006,0.132-0.018c0.267-0.072,0.424-0.348,0.351-0.614l-0.354-1.298h13.133 c0.296,1.18,0.695,2.416,1.204,3.705C66.016,64.999,67.239,71.088,67.844,74.243z M63.684,55.968H63.5c-0.276,0-0.5,0.224-0.5,0.5 s0.224,0.5,0.5,0.5h0.253c0.064,0.646,0.163,1.311,0.304,2H35.944c0.143-0.707,0.236-1.369,0.296-2h1.26c0.276,0,0.5-0.224,0.5-0.5 s-0.224-0.5-0.5-0.5h-1.194c0.13-3.78-1.165-6.09-2.324-7.393c0.003-0.015,0.012-0.028,0.014-0.044l1-8 c0.002-0.016-0.004-0.031-0.004-0.047c0.001-0.016,0.007-0.03,0.006-0.047l-0.002-0.031c-0.001-0.02-0.011-0.035-0.014-0.054 c-0.003-0.012-0.005-0.023-0.009-0.034c-0.057-0.225-0.259-0.383-0.506-0.364c-0.104,0.007-0.192,0.054-0.268,0.116 c-0.005,0.004-0.01,0.008-0.015,0.012c-0.037,0.032-0.068,0.068-0.095,0.109c-0.014,0.02-0.025,0.04-0.035,0.062 c-0.016,0.034-0.026,0.067-0.035,0.104c-0.004,0.017-0.014,0.031-0.016,0.049l-0.756,6.049c-2.41-5.421-6.262-7.422-8.308-8.123 l4.309-7.996c0.027-0.051,0.05-0.104,0.068-0.158c0.688-2.064,2.015-3.811,3.725-5.017l0.083,1.334 c0.017,0.265,0.237,0.469,0.499,0.469c0.011,0,0.021,0,0.032-0.001c0.275-0.018,0.485-0.255,0.468-0.53l-0.117-1.874 c0.347-0.188,0.703-0.36,1.073-0.505l4.416-1.26c-0.077,0.88,0.871,1.591,1.436,1.931c-0.223,1.186-0.044,2.16,0.535,2.901 c0.738,0.946,1.925,1.226,2.574,1.308c0.164,0.912,0.814,1.692,1.871,2.229c1.02,0.519,2.38,0.805,3.831,0.805 c2.581,0,5.345-0.954,5.704-3.034c0.65-0.083,1.834-0.362,2.572-1.308c0.579-0.741,0.758-1.716,0.535-2.901 c0.56-0.337,1.493-1.038,1.436-1.907l4.673,1.272c0.461,0.168,0.898,0.377,1.322,0.605l-0.109,1.738 c-0.017,0.275,0.192,0.513,0.468,0.53c0.011,0.001,0.021,0.001,0.032,0.001c0.262,0,0.482-0.204,0.499-0.469l0.076-1.21 c1.754,1.215,3.089,2.959,3.782,5.041c0.022,0.067,0.052,0.133,0.089,0.194l5.029,8.469c-2.404,0.226-6.758,1.401-9.192,6.711 l-0.662-5.296c-0.001-0.007-0.005-0.013-0.007-0.02c-0.026-0.234-0.211-0.417-0.457-0.432c-0.169-0.025-0.318,0.066-0.417,0.199 c-0.007,0.009-0.013,0.017-0.019,0.026c-0.024,0.037-0.043,0.073-0.058,0.115c-0.011,0.029-0.018,0.059-0.024,0.09 c-0.003,0.018-0.013,0.035-0.014,0.053c-0.001,0.016,0.006,0.031,0.006,0.047c0,0.016-0.005,0.031-0.004,0.047l1,8 c0.002,0.019,0.012,0.034,0.017,0.053C64.346,50.455,63.566,52.95,63.684,55.968z M78.463,43.828 c-0.281,0.449-1.077,0.696-2.241,0.696c-0.323,0-0.626,0.156-0.814,0.419c-0.256,0.358-1.199,1.398-2.146,1.477 c-0.458,0.036-0.89-0.16-1.333-0.603c-0.211-0.211-0.504-0.312-0.804-0.287c-0.297,0.028-0.567,0.189-0.734,0.438 c-0.016,0.023-1.576,2.232-2.722,1.662c-0.218-0.108-0.452-0.117-0.671-0.066c2.282-6.75,7.411-7.582,9.517-7.629l1.856,2.135 C78.532,42.454,78.782,43.316,78.463,43.828z"/><path fill="#1f212b" d="M34.124,34.948c0.011,0,0.021,0,0.032-0.001c0.275-0.018,0.485-0.255,0.468-0.53l-0.125-1.996 c-0.018-0.276-0.257-0.486-0.53-0.468c-0.275,0.018-0.485,0.255-0.468,0.53l0.125,1.996C33.642,34.744,33.862,34.948,34.124,34.948 z"/><path fill="#1f212b" d="M34.217,35.945c-0.275,0.018-0.485,0.255-0.468,0.53l0.125,1.996 c0.017,0.265,0.237,0.469,0.499,0.469c0.011,0,0.021,0,0.032-0.001c0.275-0.018,0.485-0.255,0.468-0.53l-0.125-1.996 C34.73,36.137,34.489,35.923,34.217,35.945z"/><path fill="#1f212b" d="M33.874,30.956c0.011,0,0.021,0,0.032-0.001c0.275-0.018,0.485-0.255,0.468-0.53l-0.125-1.996 c-0.018-0.275-0.255-0.506-0.53-0.468c-0.275,0.018-0.485,0.255-0.468,0.53l0.125,1.996C33.392,30.752,33.612,30.956,33.874,30.956 z"/><path fill="#1f212b" d="M66.094,30.955c0.011,0.001,0.021,0.001,0.032,0.001c0.262,0,0.482-0.204,0.499-0.469l0.125-1.996 c0.017-0.275-0.192-0.513-0.468-0.53c-0.272-0.037-0.513,0.192-0.53,0.468l-0.125,1.996C65.609,30.7,65.819,30.938,66.094,30.955z"/><path fill="#1f212b" d="M65.845,34.947c0.011,0.001,0.021,0.001,0.032,0.001c0.262,0,0.482-0.204,0.499-0.469l0.125-1.996 c0.017-0.275-0.192-0.513-0.468-0.53c-0.271-0.017-0.513,0.191-0.53,0.468l-0.125,1.996C65.36,34.692,65.569,34.93,65.845,34.947z"/><path fill="#1f212b" d="M65.595,38.939c0.011,0.001,0.021,0.001,0.032,0.001c0.262,0,0.482-0.204,0.499-0.469l0.125-1.996 c0.017-0.275-0.192-0.513-0.468-0.53c-0.269-0.021-0.513,0.191-0.53,0.468l-0.125,1.996C65.11,38.685,65.32,38.922,65.595,38.939z"/><path fill="#1f212b" d="M47.526,66.703c-0.263-0.071-0.541,0.085-0.614,0.351l-0.526,1.93 c-0.073,0.267,0.084,0.542,0.351,0.614c0.044,0.012,0.088,0.018,0.132,0.018c0.22,0,0.421-0.146,0.482-0.368l0.526-1.93 C47.95,67.051,47.793,66.775,47.526,66.703z"/><path fill="#1f212b" d="M48.579,62.845c-0.264-0.071-0.542,0.085-0.614,0.351l-0.526,1.93 c-0.073,0.267,0.084,0.542,0.351,0.614c0.044,0.012,0.088,0.018,0.132,0.018c0.22,0,0.421-0.146,0.482-0.368l0.526-1.93 C49.003,63.192,48.846,62.917,48.579,62.845z"/><path fill="#1f212b" d="M52.561,65.125l-0.526-1.93c-0.072-0.266-0.349-0.421-0.614-0.351 c-0.267,0.072-0.424,0.348-0.351,0.614l0.526,1.93c0.061,0.222,0.262,0.368,0.482,0.368c0.044,0,0.088-0.006,0.132-0.018 C52.477,65.667,52.634,65.392,52.561,65.125z"/><path fill="#1f212b" d="M53.087,67.054c-0.073-0.266-0.35-0.421-0.614-0.351c-0.267,0.072-0.424,0.348-0.351,0.614 l0.526,1.93c0.061,0.222,0.262,0.368,0.482,0.368c0.044,0,0.088-0.006,0.132-0.018c0.267-0.072,0.424-0.348,0.351-0.614 L53.087,67.054z"/><path fill="#1f212b" d="M57.5,55.968h-2c-0.276,0-0.5,0.224-0.5,0.5s0.224,0.5,0.5,0.5h2c0.276,0,0.5-0.224,0.5-0.5 S57.776,55.968,57.5,55.968z"/><path fill="#1f212b" d="M53.5,55.968h-2c-0.276,0-0.5,0.224-0.5,0.5s0.224,0.5,0.5,0.5h2c0.276,0,0.5-0.224,0.5-0.5 S53.776,55.968,53.5,55.968z"/><path fill="#1f212b" d="M49.5,55.968h-2c-0.276,0-0.5,0.224-0.5,0.5s0.224,0.5,0.5,0.5h2c0.276,0,0.5-0.224,0.5-0.5 S49.776,55.968,49.5,55.968z"/><path fill="#1f212b" d="M45.5,55.968h-2c-0.276,0-0.5,0.224-0.5,0.5s0.224,0.5,0.5,0.5h2c0.276,0,0.5-0.224,0.5-0.5 S45.776,55.968,45.5,55.968z"/><path fill="#1f212b" d="M41.5,55.968h-2c-0.276,0-0.5,0.224-0.5,0.5s0.224,0.5,0.5,0.5h2c0.276,0,0.5-0.224,0.5-0.5 S41.776,55.968,41.5,55.968z"/><path fill="#1f212b" d="M61.5,55.968h-2c-0.276,0-0.5,0.224-0.5,0.5s0.224,0.5,0.5,0.5h2c0.276,0,0.5-0.224,0.5-0.5 S61.776,55.968,61.5,55.968z"/></svg>